:SAMPLES-PER-SECOND 30
:FULLY-SPECIFIED
:DEGREES
518
root  -19.7276 36.5155 5.50468 -65.8683 -74.0232 54.8889
RightUpLeg  -17.2794 13.0844 -8.86312
RightLeg  68.4089 -25.1072 -50.1388
RightFoot  -4.83368 -0.192398 2.50934
RightToes  6.35927e-011 1.30204e-014 -6.03759e-014
Spine  20.8081 -1.83494 -5.11128
Spine1  1.63986 -2.19655 -2.27764
HEad  -8.35785 1.67796 -5.29419
LeftShoulder1  1.06628 -0.944823 -17.2903
LeftArm  -16.4492 32.354 -46.3319
LeftForeArm  114.396 -80.9687 -89.8091
LeftHand  0.220136 12.0615 4.7418
RightShoulder  0.435509 -1.44056 14.4127
RightArm  -12.7405 -34.9376 47.1505
RightForeArm  -171.137 69.4278 156.465
RightHand  0.506774 -9.08157 -16.4983
LeftUpLeg  -24.7893 20.7833 4.47273
LeftLeg  73.7643 -0.0713108 0.880821
LeftFoot  9.14339 5.16084 -28.3789
LeftToes  7.40077e-010 7.2695e-011 -6.03601e-011
519
root  -19.8749 36.3887 5.73896 -59.8011 -73.6603 48.4877
RightUpLeg  -15.265 16.2457 -7.29124
RightLeg  68.8369 -26.3885 -52.148
RightFoot  -5.72493 -0.0803767 1.02814
RightToes  6.35927e-011 1.30204e-014 -6.03759e-014
Spine  19.5365 -2.77065 -4.92011
Spine1  2.55926 -3.14104 -2.67124
HEad  -8.23819 2.42437 -5.27001
LeftShoulder1  1.31667 -1.73078 -18.5789
LeftArm  -16.9351 33.2907 -49.4013
LeftForeArm  73.0819 -78.6326 -53.1511
LeftHand  0.114768 10.5158 3.73494
RightShoulder  0.388125 -1.67939 14.6318
RightArm  -9.45617 -35.9664 47.6812
RightForeArm  -179.632 72.5891 150.723
RightHand  0.201522 -6.90726 -16.5873
LeftUpLeg  -19.2232 13.2079 -0.617522
LeftLeg  64.6283 -0.307006 -0.265034
LeftFoot  4.14232 3.71661 -26.876
LeftToes  7.40077e-010 7.2695e-011 -6.03601e-011
520
root  -19.913 36.2941 6.03793 -63.0432 -76.2746 52.1452
RightUpLeg  -14.7886 12.897 -7.62101
RightLeg  64.6073 -24.8274 -44.3288
RightFoot  -10.128 -0.105379 5.42675
RightToes  6.35927e-011 1.30204e-014 -6.03759e-014
Spine  18.6391 -2.26636 -4.45149
Spine1  2.77436 -2.76753 -3.03894
HEad  -9.51522 4.3115 -5.00331
LeftShoulder1  1.48918 -2.10602 -20.1072
LeftArm  -16.2903 33.9101 -51.8358
LeftForeArm  58.6563 -76.6736 -44.3617
LeftHand  0.0786575 9.14083 3.7972
RightShoulder  0.395341 -1.69489 15.2724
RightArm  -6.2018 -34.9734 46.659
RightForeArm  161.443 77.855 133.404
RightHand  0.00739774 -5.55022 -16.2774
LeftUpLeg  -13.4068 11.2479 -2.80414
LeftLeg  56.5966 2.45235 4.50448
LeftFoot  -5.99164 1.11834 -22.1593
LeftToes  7.40077e-010 7.2695e-011 -6.03601e-011
521
root  -19.7662 36.0529 6.28535 -77.1217 -80.0079 67.0304
RightUpLeg  -17.862 4.33222 -9.45644
RightLeg  61.2181 -17.8389 -31.3472
RightFoot  -13.265 0.0702273 10.8736
RightToes  6.35927e-011 1.30204e-014 -6.03759e-014
Spine  18.8002 -0.442021 -6.00764
Spine1  2.91 -1.90966 -0.330575
HEad  -12.8124 6.88423 -4.67655
LeftShoulder1  1.40455 -1.53738 -21.5003
LeftArm  -14.6198 32.9202 -53.8861
LeftForeArm  67.4821 -78.4399 -56.0372
LeftHand  0.0912624 8.57257 4.75301
RightShoulder  0.444 -1.52206 15.8649
RightArm  -5.92152 -32.957 45.9726
RightForeArm  124.942 81.229 95.5481
RightHand  0.0260416 -5.64986 -17.0581
LeftUpLeg  -10.4793 13.8226 -2.47851
LeftLeg  52.832 6.14087 9.22222
LeftFoot  -16.1202 -0.654148 -17.201
LeftToes  7.40077e-010 7.2695e-011 -6.03601e-011
522
root  -19.3796 35.8687 6.33615 -89.7615 -81.9888 79.9028
RightUpLeg  -23.1486 -7.99168 -11.3388
RightLeg  63.1002 -9.27424 -19.5351
RightFoot  -9.35498 -0.262677 12.4843
RightToes  6.35927e-011 1.30204e-014 -6.03759e-014
Spine  19.9879 1.17956 -9.47003
Spine1  3.82728 -1.89767 4.60517
HEad  -17.5692 8.8696 -4.19123
LeftShoulder1  1.12016 -0.526522 -21.3543
LeftArm  -11.9245 29.2315 -54.9121
LeftForeArm  105.572 -80.4457 -92.5523
LeftHand  0.125718 8.3347 6.35514
RightShoulder  0.495042 -1.3117 16.0391
RightArm  -9.71559 -33.1255 46.5105
RightForeArm  103.711 80.9488 73.4772
RightHand  0.164773 -6.39762 -20.3588
LeftUpLeg  -10.888 17.0342 -0.492162
LeftLeg  53.3417 5.93775 8.98808
LeftFoot  -19.2297 -0.945989 -15.1861
LeftToes  7.40077e-010 7.2695e-011 -6.03601e-011
523
root  -18.9164 35.9148 6.31085 -80.3297 -83.4032 69.662
RightUpLeg  -27.9168 -22.8155 -12.4422
RightLeg  67.3563 -4.04952 -11.3785
RightFoot  4.33118 -1.40087 10.5683
RightToes  6.35927e-011 1.30204e-014 -6.03759e-014
Spine  21.9504 1.25744 -10.8955
Spine1  4.89082 -2.87029 7.90217
HEad  -21.5003 9.85287 -3.25701
LeftShoulder1  0.88396 -0.00774075 -18.6319
LeftArm  -9.53478 23.9294 -53.9903
LeftForeArm  146.991 -77.6423 -131.342
LeftHand  0.167024 8.12147 8.4358
RightShoulder  0.519998 -1.19545 15.9619
RightArm  -14.3305 -36.9414 46.4769
RightForeArm  118.17 81.0084 92.3886
RightHand  0.231834 -6.5123 -24.5632
LeftUpLeg  -12.2367 19.1483 3.06602
LeftLeg  55.4513 2.34235 4.18133
LeftFoot  -16.2036 -0.551872 -15.2257
LeftToes  7.40077e-010 7.2695e-011 -6.03601e-011
524
root  -18.651 36.0717 6.24533 -55.5441 -84.2096 43.6375
RightUpLeg  -31.1912 -38.0263 -13.6513
RightLeg  70.4847 -2.46725 -8.67426
RightFoot  23.4997 -2.94895 9.74487
RightToes  6.35927e-011 1.30204e-014 -6.03759e-014
Spine  23.4921 0.307567 -10.388
Spine1  5.08669 -3.94974 7.93121
HEad  -22.4447 10.715 -2.14638
LeftShoulder1  0.769838 -0.122076 -14.3375
LeftArm  -9.18864 19.3558 -50.7388
LeftForeArm  164.209 -72.6381 -148.457
LeftHand  0.19566 7.85206 10.4793
RightShoulder  0.532959 -1.12545 15.8253
RightArm  -15.7392 -42.2775 43.1254
RightForeArm  145.75 78.6259 126.336
RightHand  0.0698556 -5.72034 -25.4077
LeftUpLeg  -12.5811 21.8927 7.54503
LeftLeg  57.2002 -1.49399 -1.91441
LeftFoot  -12.1186 -0.0310183 -14.6469
LeftToes  7.40077e-010 7.2695e-011 -6.03601e-011
525
root  -18.6513 36.2362 6.04392 -38.8223 -84.2509 26.1551
RightUpLeg  -33.873 -50.5559 -14.9492
RightLeg  72.8031 -3.03825 -11.994
RightFoot  36.5745 -5.06896 12.0033
RightToes  6.35927e-011 1.30204e-014 -6.03759e-014
Spine  23.6382 -0.334326 -10.97
Spine1  4.24149 -4.63179 7.1177
HEad  -20.6338 12.2866 -1.40012
LeftShoulder1  0.655273 -0.149396 -10.6422
LeftArm  -10.6628 17.0819 -45.5262
LeftForeArm  169.629 -68.0821 -155.798
LeftHand  0.163718 7.36266 11.0153
RightShoulder  0.541525 -1.0411 15.354
RightArm  -13.737 -45.9933 35.997
RightForeArm  163.478 74.321 144.875
RightHand  -0.0057811 -5.42755 -21.794
LeftUpLeg  -11.529 26.3528 11.8342
LeftLeg  57.7075 -4.5182 -7.06735
LeftFoot  -10.1491 0.195149 -12.7602
LeftToes  7.40077e-010 7.2695e-011 -6.03601e-011
